<?xml version="1.0" encoding="UTF-8"?>
<svg width="256px" height="256px" viewBox="0 0 256 256" version="1.1" xmlns="http://www.w3.org/2000/svg" xmlns:xlink="http://www.w3.org/1999/xlink">
    <title>tenzai-favicon</title>
    <defs>
        <radialGradient cx="50%" cy="50%" fx="50%" fy="50%" r="60.1985575%" gradientTransform="translate(0.5, 0.5), scale(1, 0.825), rotate(-90), translate(-0.5, -0.5)" id="radialGradient-1">
            <stop stop-color="#00A8BF" offset="0%"></stop>
            <stop stop-color="#88FFFF" offset="100%"></stop>
        </radialGradient>
    </defs>
    <g id="tenzai-favicon" stroke="none" fill="none" fill-rule="evenodd">
        <rect id="Rectangle" fill="#19191A" x="0" y="0" width="256" height="256" rx="128"></rect>
        <g id="tenzai-symbol-neon" transform="translate(-37, -37)">
            <path d="M207.496563,185.619844 L241.566406,219.69029 L219.69029,241.566406 L185.62375,207.497813 L185.625,185.625 L207.496563,185.619844 Z M122.495781,185.619844 L144.375,185.625 L144.37375,207.497813 L110.30971,241.566406 L88.4335938,219.69029 L122.495781,185.619844 Z M180.46875,72.1875 L180.46875,127.648125 L219.69029,88.4335938 L241.566406,110.30971 L207.506875,144.369844 L122.500938,144.369844 L88.4335938,110.30971 L110.30971,88.4335938 L149.53125,127.648125 L149.53125,72.1875 L180.46875,72.1875 Z" id="Shape" fill="url(#radialGradient-1)"></path>
            <polygon id="Path" fill="#88FFFF" points="257.8125 149.53125 257.8125 180.46875 180.46875 180.46875 180.46875 257.8125 149.53125 257.8125 149.53125 180.46875 72.1875 180.46875 72.1875 149.53125"></polygon>
        </g>
    </g>
</svg>